<svg id="Warstwa_1" data-name="Warstwa 1" xmlns="http://www.w3.org/2000/svg" viewBox="0 0 367.5 81.55"><defs><style>.cls-1{fill:#d2d2d2;}.cls-2{fill:#dd052b;}.cls-3{fill:#b9b8b8;}.cls-4{fill:#9b9a9a;}</style></defs><path class="cls-1" d="M57.51,50a33.66,33.66,0,0,1-20.27,6.75A20.28,20.28,0,0,1,57.51,77a26.89,26.89,0,0,1,7.72-18.91A33.81,33.81,0,0,0,57.51,50" transform="translate(-23.73 -22.93)"/><rect class="cls-1" y="33.78" width="13.51" height="20.27"/><rect class="cls-1" width="13.51" height="20.27"/><rect class="cls-1" x="60.8" y="40.53" width="13.51" height="13.51"/><rect class="cls-1" x="60.8" y="67.56" width="13.51" height="13.51"/><path class="cls-2" d="M111.55,36.45V22.93A20.28,20.28,0,0,0,91.28,43.2h13.51a6.76,6.76,0,0,1,6.76-6.75" transform="translate(-23.73 -22.93)"/><path class="cls-1" d="M84.53,63.47V50a27,27,0,0,0-19.3,8.11A33.62,33.62,0,0,1,71,77,13.51,13.51,0,0,1,84.53,63.47" transform="translate(-23.73 -22.93)"/><path class="cls-3" d="M65.23,58.07A26.89,26.89,0,0,0,57.51,77H71a33.62,33.62,0,0,0-5.79-18.91" transform="translate(-23.73 -22.93)"/><rect class="cls-1" x="33.78" y="67.56" width="13.51" height="13.51"/><path class="cls-1" d="M71,22.93H57.51A20.27,20.27,0,0,1,37.24,43.2,33.6,33.6,0,0,1,57.51,50,33.76,33.76,0,0,0,71,22.93" transform="translate(-23.73 -22.93)"/><path class="cls-3" d="M37.24,43.2H23.73V56.71H37.24A33.66,33.66,0,0,0,57.51,50,33.6,33.6,0,0,0,37.24,43.2" transform="translate(-23.73 -22.93)"/><path class="cls-3" d="M111.55,50a6.76,6.76,0,0,1-6.76-6.76H91.28a20.28,20.28,0,0,0,20.27,20.27,6.76,6.76,0,1,1,0,13.51H98V90.49h13.51a20.27,20.27,0,1,0,0-40.53" transform="translate(-23.73 -22.93)"/><rect class="cls-3" x="47.29" y="54.04" width="13.51" height="13.51"/><rect class="cls-4" x="60.8" y="54.04" width="13.51" height="13.51"/><rect class="cls-4" x="33.78" y="54.04" width="13.51" height="13.51"/><polygon class="cls-1" points="124.03 40.53 127.62 40.53 127.62 47.3 134 40.53 138.49 40.53 132.1 46.98 139.1 56.87 134.6 56.87 129.68 49.52 127.62 51.6 127.62 56.87 124.03 56.87 124.03 40.53"/><path class="cls-1" d="M163.93,68H167v2.2h0a3.82,3.82,0,0,1,.62-1,3.78,3.78,0,0,1,.89-.8,4.21,4.21,0,0,1,1.07-.51,3.66,3.66,0,0,1,1.19-.19,2.4,2.4,0,0,1,.71.12v3a5.53,5.53,0,0,0-.55-.08,4.4,4.4,0,0,0-.62,0,3.48,3.48,0,0,0-1.51.3,2.64,2.64,0,0,0-1,.81,3.45,3.45,0,0,0-.54,1.2,6.42,6.42,0,0,0-.16,1.49V79.8h-3.25Z" transform="translate(-23.73 -22.93)"/><path class="cls-1" d="M172.7,71.61a3.71,3.71,0,0,1,.57-1.9,3.9,3.9,0,0,1,1.28-1.21,5.47,5.47,0,0,1,1.75-.65,10,10,0,0,1,2-.2,13.87,13.87,0,0,1,1.8.13,5.5,5.5,0,0,1,1.67.49,3.26,3.26,0,0,1,1.24,1,2.84,2.84,0,0,1,.48,1.73v6.15a12.59,12.59,0,0,0,.09,1.53,2.77,2.77,0,0,0,.32,1.1h-3.29a2.73,2.73,0,0,1-.15-.56,3.85,3.85,0,0,1-.08-.58,4.35,4.35,0,0,1-1.83,1.12,7.52,7.52,0,0,1-2.15.32,5.69,5.69,0,0,1-1.58-.21,3.58,3.58,0,0,1-1.28-.64,2.93,2.93,0,0,1-.86-1.1,3.64,3.64,0,0,1-.31-1.57,3.49,3.49,0,0,1,.35-1.66,2.92,2.92,0,0,1,.92-1,4.06,4.06,0,0,1,1.28-.59c.48-.13,1-.23,1.45-.31l1.44-.18a9.27,9.27,0,0,0,1.26-.2,2.2,2.2,0,0,0,.87-.41.86.86,0,0,0,.3-.76,1.81,1.81,0,0,0-.17-.84,1.41,1.41,0,0,0-.46-.48,1.91,1.91,0,0,0-.66-.23,7,7,0,0,0-.82,0,2.39,2.39,0,0,0-1.5.41,1.85,1.85,0,0,0-.65,1.37Zm7.5,2.4a1.53,1.53,0,0,1-.52.29,5.27,5.27,0,0,1-.66.17c-.24,0-.48.08-.74.11l-.78.12a6.31,6.31,0,0,0-.72.18,2.25,2.25,0,0,0-.62.31,1.54,1.54,0,0,0-.42.49,1.56,1.56,0,0,0-.16.76,1.49,1.49,0,0,0,.16.73,1.3,1.3,0,0,0,.43.47,2.12,2.12,0,0,0,.64.24,4.77,4.77,0,0,0,.76.07,2.92,2.92,0,0,0,1.49-.32,2.1,2.1,0,0,0,.77-.77,2.48,2.48,0,0,0,.31-.9,6,6,0,0,0,.06-.73Z" transform="translate(-23.73 -22.93)"/><path class="cls-1" d="M184.32,81.17a2.07,2.07,0,0,0,.68.09,1.94,1.94,0,0,0,.89-.19c.25-.13.37-.42.37-.86V68h3.25v12.4a5.65,5.65,0,0,1-.19,1.58,2.43,2.43,0,0,1-.67,1.11,2.79,2.79,0,0,1-1.27.66,7.66,7.66,0,0,1-2,.22,5.34,5.34,0,0,1-1-.09Zm5.19-15h-3.25V63.47h3.25Z" transform="translate(-23.73 -22.93)"/><path class="cls-1" d="M191.5,73.9a7.22,7.22,0,0,1,.44-2.57,5.5,5.5,0,0,1,1.23-2,5.72,5.72,0,0,1,1.92-1.26,6.73,6.73,0,0,1,2.52-.45,6.82,6.82,0,0,1,2.53.45,5.42,5.42,0,0,1,3.17,3.23,7.87,7.87,0,0,1,0,5.13,5.75,5.75,0,0,1-1.24,2,5.39,5.39,0,0,1-1.93,1.24,7,7,0,0,1-2.53.44,6.94,6.94,0,0,1-2.52-.44,5.53,5.53,0,0,1-1.92-1.24,5.73,5.73,0,0,1-1.23-2,7.16,7.16,0,0,1-.44-2.56m3.25,0a7,7,0,0,0,.14,1.38,3.6,3.6,0,0,0,.47,1.21,2.42,2.42,0,0,0,.88.86,2.6,2.6,0,0,0,1.37.32,2.66,2.66,0,0,0,1.38-.32,2.4,2.4,0,0,0,.9-.86,3.58,3.58,0,0,0,.46-1.21,6.34,6.34,0,0,0,.14-1.38,6.58,6.58,0,0,0-.14-1.4,3.58,3.58,0,0,0-.46-1.21,2.56,2.56,0,0,0-.9-.86,2.66,2.66,0,0,0-1.38-.33,2.49,2.49,0,0,0-2.25,1.19,3.6,3.6,0,0,0-.47,1.21,7.3,7.3,0,0,0-.14,1.4" transform="translate(-23.73 -22.93)"/><polygon class="cls-1" points="195.18 56.87 191.84 56.87 189.74 48.93 189.69 48.93 187.68 56.87 184.31 56.87 180.56 45.04 184 45.04 186.17 53.07 186.21 53.07 188.18 45.04 191.34 45.04 193.35 53.05 193.4 53.05 195.57 45.04 198.91 45.04 195.18 56.87"/><path class="cls-1" d="M223.88,71.61a3.71,3.71,0,0,1,.57-1.9,3.9,3.9,0,0,1,1.28-1.21,5.47,5.47,0,0,1,1.75-.65,9.93,9.93,0,0,1,2-.2,13.9,13.9,0,0,1,1.81.13,5.5,5.5,0,0,1,1.67.49,3.34,3.34,0,0,1,1.24,1,2.84,2.84,0,0,1,.48,1.73v6.15a12.59,12.59,0,0,0,.09,1.53,2.77,2.77,0,0,0,.32,1.1h-3.3a3.53,3.53,0,0,1-.14-.56,3.85,3.85,0,0,1-.08-.58,4.35,4.35,0,0,1-1.83,1.12,7.53,7.53,0,0,1-2.16.32,5.67,5.67,0,0,1-1.57-.21,3.58,3.58,0,0,1-1.28-.64,2.84,2.84,0,0,1-.86-1.1,3.64,3.64,0,0,1-.31-1.57,3.49,3.49,0,0,1,.35-1.66,2.92,2.92,0,0,1,.92-1,4.06,4.06,0,0,1,1.28-.59,14.38,14.38,0,0,1,1.45-.31L229,72.8a9.27,9.27,0,0,0,1.26-.2,2.2,2.2,0,0,0,.87-.41.89.89,0,0,0,.3-.76,1.81,1.81,0,0,0-.17-.84,1.41,1.41,0,0,0-.46-.48,1.91,1.91,0,0,0-.66-.23,7.08,7.08,0,0,0-.82,0,2.44,2.44,0,0,0-1.51.41,1.84,1.84,0,0,0-.64,1.37Zm7.5,2.4a1.53,1.53,0,0,1-.52.29,5.27,5.27,0,0,1-.66.17c-.24,0-.48.08-.74.11l-.78.12a5.83,5.83,0,0,0-.72.18,2.25,2.25,0,0,0-.62.31,1.42,1.42,0,0,0-.42.49,1.56,1.56,0,0,0-.16.76,1.49,1.49,0,0,0,.16.73,1.22,1.22,0,0,0,.43.47,2,2,0,0,0,.64.24,4.77,4.77,0,0,0,.76.07,2.88,2.88,0,0,0,1.48-.32,2.13,2.13,0,0,0,.78-.77,2.48,2.48,0,0,0,.31-.9,6,6,0,0,0,.06-.73Z" transform="translate(-23.73 -22.93)"/><path class="cls-1" d="M248.31,63.47H252L258.1,79.8h-3.73l-1.23-3.64H247l-1.28,3.64h-3.62Zm-.34,10h4.23l-2.06-6h0Z" transform="translate(-23.73 -22.93)"/><path class="cls-1" d="M267.16,78.29h-.05a3.43,3.43,0,0,1-1.49,1.39,5,5,0,0,1-2.1.42,5,5,0,0,1-2.33-.52,4.77,4.77,0,0,1-1.66-1.39,6.38,6.38,0,0,1-1-2,8.5,8.5,0,0,1-.33-2.38,7.93,7.93,0,0,1,.33-2.29,6,6,0,0,1,1-2,4.94,4.94,0,0,1,1.64-1.36,4.88,4.88,0,0,1,2.28-.52,4.65,4.65,0,0,1,2,.45A3.51,3.51,0,0,1,267,69.41H267V63.47h3.25V79.8h-3.09Zm-.05-4.44a7.08,7.08,0,0,0-.13-1.4,3.41,3.41,0,0,0-.47-1.19,2.42,2.42,0,0,0-2.19-1.16,2.7,2.7,0,0,0-1.35.32,2.56,2.56,0,0,0-.88.85,3.77,3.77,0,0,0-.48,1.2,6.31,6.31,0,0,0,0,2.78,3.72,3.72,0,0,0,.52,1.22,2.84,2.84,0,0,0,.89.87,2.43,2.43,0,0,0,1.29.33,2.51,2.51,0,0,0,1.34-.32,2.36,2.36,0,0,0,.86-.86,3.77,3.77,0,0,0,.46-1.22,7.35,7.35,0,0,0,.13-1.42" transform="translate(-23.73 -22.93)"/><path class="cls-1" d="M272.79,68h3.06v1.61h0a4.61,4.61,0,0,1,1.54-1.42,4.19,4.19,0,0,1,2.08-.51,4.76,4.76,0,0,1,2,.44A2.87,2.87,0,0,1,283,69.62a5.08,5.08,0,0,1,1.43-1.37,3.76,3.76,0,0,1,2.14-.6,6.48,6.48,0,0,1,1.74.23,3.54,3.54,0,0,1,1.37.73,3.39,3.39,0,0,1,.89,1.32,5.4,5.4,0,0,1,.32,2V79.8h-3.25V73.1c0-.4,0-.77,0-1.12a2.54,2.54,0,0,0-.25-.92,1.58,1.58,0,0,0-.61-.62,2.24,2.24,0,0,0-1.09-.22,2.05,2.05,0,0,0-1.11.26,1.87,1.87,0,0,0-.66.68,2.77,2.77,0,0,0-.32,1,7.73,7.73,0,0,0-.08,1.08V79.8H280.2V73.17c0-.35,0-.7,0-1a2.87,2.87,0,0,0-.2-.95,1.4,1.4,0,0,0-.57-.7,2.13,2.13,0,0,0-1.18-.26,2.31,2.31,0,0,0-.6.1,2,2,0,0,0-.73.39,2.23,2.23,0,0,0-.61.82,3.33,3.33,0,0,0-.25,1.41V79.8h-3.25Z" transform="translate(-23.73 -22.93)"/><path class="cls-1" d="M296.77,66.14h-3.25V63.47h3.25ZM293.52,68h3.25V79.8h-3.25Z" transform="translate(-23.73 -22.93)"/><path class="cls-1" d="M299.33,68h3.09v1.65h.07a3.72,3.72,0,0,1,1.6-1.5,4.63,4.63,0,0,1,2-.47,5.46,5.46,0,0,1,2.14.36,3.07,3.07,0,0,1,1.31,1,3.83,3.83,0,0,1,.68,1.53,9.6,9.6,0,0,1,.19,2V79.8h-3.25V73.12a4.17,4.17,0,0,0-.45-2.18,1.79,1.79,0,0,0-1.63-.72,2.25,2.25,0,0,0-1.92.79,4.34,4.34,0,0,0-.59,2.59v6.2h-3.25Z" transform="translate(-23.73 -22.93)"/><path class="cls-1" d="M316.24,66.14H313V63.47h3.25ZM313,68h3.25V79.8H313Z" transform="translate(-23.73 -22.93)"/><path class="cls-1" d="M321.31,76a1.82,1.82,0,0,0,.22.9,2,2,0,0,0,.56.62,2.27,2.27,0,0,0,.79.35,3.59,3.59,0,0,0,.93.12,3.69,3.69,0,0,0,.72-.08,2.74,2.74,0,0,0,.68-.25,1.64,1.64,0,0,0,.52-.46,1.18,1.18,0,0,0,.2-.72c0-.49-.32-.86-1-1.1a19.48,19.48,0,0,0-2.71-.73c-.47-.11-.93-.24-1.38-.38a4.44,4.44,0,0,1-1.2-.57,2.88,2.88,0,0,1-.85-.89,2.58,2.58,0,0,1-.32-1.32,3.5,3.5,0,0,1,.45-1.87,3.2,3.2,0,0,1,1.18-1.16,5,5,0,0,1,1.64-.59,9.74,9.74,0,0,1,1.88-.18,8.76,8.76,0,0,1,1.86.19,4.85,4.85,0,0,1,1.61.61,3.63,3.63,0,0,1,1.18,1.16,3.8,3.8,0,0,1,.56,1.82h-3.09a1.41,1.41,0,0,0-.7-1.27,3.26,3.26,0,0,0-1.51-.33l-.6,0a1.77,1.77,0,0,0-.58.15,1.25,1.25,0,0,0-.45.33,1,1,0,0,0,.14,1.29,2.26,2.26,0,0,0,.83.45,11.73,11.73,0,0,0,1.18.31l1.35.3a11,11,0,0,1,1.39.39,4.49,4.49,0,0,1,1.2.6,2.91,2.91,0,0,1,.84.94,2.66,2.66,0,0,1,.32,1.38,3.72,3.72,0,0,1-.47,2,3.8,3.8,0,0,1-1.22,1.27,5,5,0,0,1-1.73.67,9.92,9.92,0,0,1-2,.2,9.66,9.66,0,0,1-2-.21,5.42,5.42,0,0,1-1.75-.68,4,4,0,0,1-1.26-1.27,4.08,4.08,0,0,1-.53-2Z" transform="translate(-23.73 -22.93)"/><path class="cls-1" d="M335.2,68h2.38v2.18H335.2V76a1.61,1.61,0,0,0,.27,1.1,1.63,1.63,0,0,0,1.1.27,4.52,4.52,0,0,0,.53,0,3.46,3.46,0,0,0,.48-.07V79.8a6.09,6.09,0,0,1-.91.09c-.34,0-.67,0-1,0a9.35,9.35,0,0,1-1.43-.1,3.34,3.34,0,0,1-1.19-.4,2.18,2.18,0,0,1-.81-.84,3,3,0,0,1-.3-1.45v-7h-2V68h2V64.43h3.25Z" transform="translate(-23.73 -22.93)"/><path class="cls-1" d="M339.14,68h3.08v2.2h0a3.82,3.82,0,0,1,.62-1,4,4,0,0,1,.89-.8,4.28,4.28,0,0,1,1.08-.51,3.6,3.6,0,0,1,1.18-.19,2.4,2.4,0,0,1,.71.12v3a5.12,5.12,0,0,0-.55-.08,4.26,4.26,0,0,0-.61,0,3.41,3.41,0,0,0-1.51.3,2.67,2.67,0,0,0-1,.81,3.45,3.45,0,0,0-.54,1.2,7,7,0,0,0-.15,1.49V79.8h-3.25Z" transform="translate(-23.73 -22.93)"/><path class="cls-1" d="M347.9,71.61a3.8,3.8,0,0,1,.57-1.9,4,4,0,0,1,1.28-1.21,5.47,5.47,0,0,1,1.75-.65,10,10,0,0,1,2-.2,14.15,14.15,0,0,1,1.81.13,5.68,5.68,0,0,1,1.67.49,3.31,3.31,0,0,1,1.23,1,2.84,2.84,0,0,1,.48,1.73v6.15a12.59,12.59,0,0,0,.09,1.53,2.77,2.77,0,0,0,.32,1.1h-3.29a5.12,5.12,0,0,1-.15-.56,3.85,3.85,0,0,1-.08-.58,4.35,4.35,0,0,1-1.83,1.12,7.46,7.46,0,0,1-2.15.32,5.69,5.69,0,0,1-1.58-.21,3.67,3.67,0,0,1-1.28-.64,2.93,2.93,0,0,1-.86-1.1,3.79,3.79,0,0,1-.31-1.57,3.38,3.38,0,0,1,.36-1.66,2.8,2.8,0,0,1,.91-1,4.17,4.17,0,0,1,1.28-.59,14.57,14.57,0,0,1,1.46-.31c.48-.07,1-.13,1.44-.18a9.81,9.81,0,0,0,1.26-.2,2.22,2.22,0,0,0,.86-.41.84.84,0,0,0,.3-.76,1.81,1.81,0,0,0-.17-.84,1.32,1.32,0,0,0-.46-.48,1.91,1.91,0,0,0-.66-.23,6.77,6.77,0,0,0-.81,0,2.42,2.42,0,0,0-1.51.41,1.81,1.81,0,0,0-.64,1.37Zm7.5,2.4a1.48,1.48,0,0,1-.51.29,6,6,0,0,1-.67.17c-.23,0-.48.08-.74.11s-.52.07-.78.12a6.31,6.31,0,0,0-.72.18,2.4,2.4,0,0,0-.62.31,1.54,1.54,0,0,0-.42.49,1.56,1.56,0,0,0-.16.76,1.49,1.49,0,0,0,.16.73,1.24,1.24,0,0,0,.44.47,1.94,1.94,0,0,0,.64.24,4.54,4.54,0,0,0,.75.07,2.92,2.92,0,0,0,1.49-.32,2.21,2.21,0,0,0,.78-.77,2.45,2.45,0,0,0,.3-.9,6,6,0,0,0,.06-.73Z" transform="translate(-23.73 -22.93)"/><path class="cls-1" d="M369.22,72.14a2.17,2.17,0,0,0-2.4-2,2.24,2.24,0,0,0-1.3.36,2.68,2.68,0,0,0-.86.91,3.94,3.94,0,0,0-.47,1.24,6.76,6.76,0,0,0-.14,1.33,6.56,6.56,0,0,0,.14,1.31,4.19,4.19,0,0,0,.44,1.2,2.62,2.62,0,0,0,.84.88,2.29,2.29,0,0,0,1.28.34,2.37,2.37,0,0,0,1.8-.65,3.09,3.09,0,0,0,.79-1.75h3.13a5.32,5.32,0,0,1-1.83,3.59,5.89,5.89,0,0,1-3.87,1.24,6.41,6.41,0,0,1-2.43-.45,5.38,5.38,0,0,1-1.89-1.25,5.61,5.61,0,0,1-1.21-1.91,6.57,6.57,0,0,1-.44-2.43,8,8,0,0,1,.4-2.55,5.73,5.73,0,0,1,1.18-2,5.41,5.41,0,0,1,1.9-1.34,6.46,6.46,0,0,1,2.56-.48,7.59,7.59,0,0,1,2,.28,5.44,5.44,0,0,1,1.73.83,4.41,4.41,0,0,1,1.25,1.4,4.5,4.5,0,0,1,.55,2Z" transform="translate(-23.73 -22.93)"/><path class="cls-1" d="M372.65,81.17a2.14,2.14,0,0,0,.69.09,1.87,1.87,0,0,0,.88-.19.88.88,0,0,0,.38-.86V68h3.25v12.4a5.62,5.62,0,0,1-.2,1.58,2.5,2.5,0,0,1-.66,1.11,2.84,2.84,0,0,1-1.27.66,7.74,7.74,0,0,1-2,.22,5.41,5.41,0,0,1-1-.09Zm5.2-15H374.6V63.47h3.25Z" transform="translate(-23.73 -22.93)"/><path class="cls-1" d="M380.07,71.61a3.71,3.71,0,0,1,.57-1.9,3.9,3.9,0,0,1,1.28-1.21,5.47,5.47,0,0,1,1.75-.65,10,10,0,0,1,2-.2,13.87,13.87,0,0,1,1.8.13,5.5,5.5,0,0,1,1.67.49,3.26,3.26,0,0,1,1.24,1,2.84,2.84,0,0,1,.48,1.73v6.15a12.59,12.59,0,0,0,.09,1.53,2.77,2.77,0,0,0,.32,1.1h-3.29a2.73,2.73,0,0,1-.15-.56,3.85,3.85,0,0,1-.08-.58,4.35,4.35,0,0,1-1.83,1.12,7.52,7.52,0,0,1-2.15.32,5.69,5.69,0,0,1-1.58-.21,3.58,3.58,0,0,1-1.28-.64,2.93,2.93,0,0,1-.86-1.1,3.64,3.64,0,0,1-.31-1.57,3.49,3.49,0,0,1,.35-1.66,2.92,2.92,0,0,1,.92-1,4.06,4.06,0,0,1,1.28-.59c.48-.13,1-.23,1.45-.31l1.44-.18a9.27,9.27,0,0,0,1.26-.2,2.2,2.2,0,0,0,.87-.41.86.86,0,0,0,.3-.76,1.81,1.81,0,0,0-.17-.84,1.41,1.41,0,0,0-.46-.48,1.91,1.91,0,0,0-.66-.23,7,7,0,0,0-.82,0,2.39,2.39,0,0,0-1.5.41,1.85,1.85,0,0,0-.65,1.37Zm7.5,2.4a1.53,1.53,0,0,1-.52.29,5.27,5.27,0,0,1-.66.17c-.24,0-.48.08-.74.11l-.78.12a6.31,6.31,0,0,0-.72.18,2.25,2.25,0,0,0-.62.31,1.54,1.54,0,0,0-.42.49,1.56,1.56,0,0,0-.16.76,1.49,1.49,0,0,0,.16.73,1.3,1.3,0,0,0,.43.47,2.12,2.12,0,0,0,.64.24,4.77,4.77,0,0,0,.76.07,2.92,2.92,0,0,0,1.49-.32,2.1,2.1,0,0,0,.77-.77,2.48,2.48,0,0,0,.31-.9,6,6,0,0,0,.06-.73Z" transform="translate(-23.73 -22.93)"/><path class="cls-2" d="M157.41,92.57A3.36,3.36,0,0,0,156.14,90a4.58,4.58,0,0,0-2.78-.79,6.19,6.19,0,0,0-1.35.14,3.57,3.57,0,0,0-1.17.45,2.44,2.44,0,0,0-.83.86A2.74,2.74,0,0,0,149.7,92a1.69,1.69,0,0,0,.45,1.22,3.23,3.23,0,0,0,1.19.77,9.85,9.85,0,0,0,1.68.49l1.91.42c.65.16,1.28.34,1.91.54a6.29,6.29,0,0,1,1.68.84,4,4,0,0,1,1.19,1.32,4.62,4.62,0,0,1-.14,4.25,4.77,4.77,0,0,1-1.49,1.51,6.42,6.42,0,0,1-2.05.84,9.76,9.76,0,0,1-2.26.27,9.48,9.48,0,0,1-2.59-.35,6.33,6.33,0,0,1-2.15-1,4.92,4.92,0,0,1-1.47-1.78,5.88,5.88,0,0,1-.53-2.58h2.06a3.68,3.68,0,0,0,.4,1.78,3.54,3.54,0,0,0,1,1.22,4.35,4.35,0,0,0,1.52.71,7.06,7.06,0,0,0,1.78.23,8.32,8.32,0,0,0,1.48-.14,4.44,4.44,0,0,0,1.34-.47,2.76,2.76,0,0,0,1-.9,2.7,2.7,0,0,0,.36-1.46,2,2,0,0,0-.44-1.38,3.48,3.48,0,0,0-1.19-.86,8.49,8.49,0,0,0-1.68-.53l-1.91-.43c-.65-.14-1.29-.31-1.91-.5a6.79,6.79,0,0,1-1.68-.75A3.56,3.56,0,0,1,148,94a3.51,3.51,0,0,1-.45-1.86A4.39,4.39,0,0,1,148,90a4.46,4.46,0,0,1,1.34-1.49,6.23,6.23,0,0,1,1.9-.87,8.41,8.41,0,0,1,2.18-.28,8.72,8.72,0,0,1,2.34.3,5.39,5.39,0,0,1,1.89.93A4.66,4.66,0,0,1,159,90.25a5.75,5.75,0,0,1,.51,2.32Z" transform="translate(-23.73 -22.93)"/><polygon class="cls-2" points="138.4 64.85 140.34 64.85 140.34 74.53 145.74 69.36 148.35 69.36 143.66 73.66 148.69 81.19 146.22 81.19 142.17 75.01 140.34 76.7 140.34 81.19 138.4 81.19 138.4 64.85"/><path class="cls-2" d="M184.36,104.07a2.71,2.71,0,0,1-1.39.3,1.66,1.66,0,0,1-1.2-.42,1.83,1.83,0,0,1-.45-1.39,4.52,4.52,0,0,1-1.86,1.39,6.23,6.23,0,0,1-2.3.42,6.59,6.59,0,0,1-1.51-.17,3.41,3.41,0,0,1-1.25-.57,2.85,2.85,0,0,1-.85-1,3.52,3.52,0,0,1-.3-1.52,3.48,3.48,0,0,1,.34-1.65,3,3,0,0,1,.9-1,4.21,4.21,0,0,1,1.28-.61c.48-.13,1-.25,1.48-.34a15.33,15.33,0,0,1,1.52-.24A8.06,8.06,0,0,0,180,97a2.15,2.15,0,0,0,.87-.43,1.08,1.08,0,0,0,.32-.84,2,2,0,0,0-.24-1,1.67,1.67,0,0,0-.62-.59,2.52,2.52,0,0,0-.84-.28,7.5,7.5,0,0,0-.93-.06,4.13,4.13,0,0,0-2.06.46,2,2,0,0,0-.89,1.78h-2a4.28,4.28,0,0,1,.46-1.86,3.5,3.5,0,0,1,1.1-1.22,4.7,4.7,0,0,1,1.58-.68,8.71,8.71,0,0,1,1.87-.2,11.9,11.9,0,0,1,1.59.11,4.3,4.3,0,0,1,1.43.47,2.74,2.74,0,0,1,1,1,3.15,3.15,0,0,1,.39,1.67v6.08a4.84,4.84,0,0,0,.08,1c.05.21.23.32.54.32a1.82,1.82,0,0,0,.59-.12ZM181.21,98a2.34,2.34,0,0,1-1,.4,12.06,12.06,0,0,1-1.25.21c-.44,0-.87.11-1.32.18a5,5,0,0,0-1.19.33,2.15,2.15,0,0,0-.85.66,1.81,1.81,0,0,0-.34,1.15,1.57,1.57,0,0,0,.2.81,1.73,1.73,0,0,0,.5.54,2.08,2.08,0,0,0,.73.3,4.19,4.19,0,0,0,.86.09,4.76,4.76,0,0,0,1.65-.26,3.47,3.47,0,0,0,1.12-.67,2.51,2.51,0,0,0,.64-.87,2.13,2.13,0,0,0,.21-.88Z" transform="translate(-23.73 -22.93)"/><path class="cls-2" d="M186.1,92.29h1.83v2.5h0a5.25,5.25,0,0,1,1.74-2.13,4.34,4.34,0,0,1,2.61-.64v2.06a5.63,5.63,0,0,0-2,.32,3,3,0,0,0-1.32.94,3.78,3.78,0,0,0-.73,1.49,7.82,7.82,0,0,0-.23,2v5.26h-2Z" transform="translate(-23.73 -22.93)"/><path class="cls-2" d="M193.86,87.79h1.94v6.1h0a2.87,2.87,0,0,1,1.51-1.42,5.56,5.56,0,0,1,2.26-.45,5.4,5.4,0,0,1,2.39.5,5,5,0,0,1,1.7,1.36,5.89,5.89,0,0,1,1,2,8.06,8.06,0,0,1,.35,2.38,8.4,8.4,0,0,1-.33,2.38,5.78,5.78,0,0,1-1,2,4.78,4.78,0,0,1-1.69,1.31,5.51,5.51,0,0,1-2.37.48,5.93,5.93,0,0,1-1-.09,5.18,5.18,0,0,1-1.07-.3,3.76,3.76,0,0,1-1-.56,3,3,0,0,1-.79-.88h0v1.58h-1.94ZM203,98.1a5.84,5.84,0,0,0-.22-1.61,4.25,4.25,0,0,0-.66-1.41,3.32,3.32,0,0,0-1.15-1,3.5,3.5,0,0,0-1.63-.37,3.21,3.21,0,0,0-2.79,1.41,4.3,4.3,0,0,0-.63,1.43,6.93,6.93,0,0,0-.2,1.63,6.67,6.67,0,0,0,.21,1.68,4.25,4.25,0,0,0,.65,1.43,3.38,3.38,0,0,0,1.16,1,3.6,3.6,0,0,0,1.71.38,3.31,3.31,0,0,0,1.68-.39,3.08,3.08,0,0,0,1.09-1,4.54,4.54,0,0,0,.6-1.46,8,8,0,0,0,.18-1.7" transform="translate(-23.73 -22.93)"/><path class="cls-2" d="M206.72,98.22a8,8,0,0,1,.36-2.44,5.54,5.54,0,0,1,1.1-2A5.14,5.14,0,0,1,210,92.5a6.62,6.62,0,0,1,4.95,0,5.19,5.19,0,0,1,1.8,1.32,5.52,5.52,0,0,1,1.09,2,7.75,7.75,0,0,1,.37,2.44,7.53,7.53,0,0,1-.37,2.42,5.61,5.61,0,0,1-1.09,2,5,5,0,0,1-1.8,1.3,6.75,6.75,0,0,1-4.95,0,5,5,0,0,1-1.81-1.3,5.63,5.63,0,0,1-1.1-2,7.82,7.82,0,0,1-.36-2.42m2.06,0a6,6,0,0,0,.28,1.91,4.08,4.08,0,0,0,.79,1.39,3.42,3.42,0,0,0,1.18.86,3.56,3.56,0,0,0,2.86,0,3.42,3.42,0,0,0,1.18-.86,4.06,4.06,0,0,0,.78-1.39,5.68,5.68,0,0,0,.29-1.91,5.6,5.6,0,0,0-.29-1.91,4.16,4.16,0,0,0-.78-1.41,3.45,3.45,0,0,0-1.18-.87A3.56,3.56,0,0,0,211,94a3.45,3.45,0,0,0-1.18.87,4.18,4.18,0,0,0-.79,1.41,5.86,5.86,0,0,0-.28,1.91" transform="translate(-23.73 -22.93)"/><polygon class="cls-2" points="208.02 81.19 205.96 81.19 203.55 71.78 203.51 71.78 201.13 81.19 199.03 81.19 195.23 69.36 197.38 69.36 200.06 79.04 200.1 79.04 202.48 69.36 204.61 69.36 207.08 79.04 207.12 79.04 209.78 69.36 211.79 69.36 208.02 81.19"/><path class="cls-2" d="M247.85,104.07a2.72,2.72,0,0,1-1.4.3,1.69,1.69,0,0,1-1.2-.42,1.87,1.87,0,0,1-.44-1.39,4.61,4.61,0,0,1-1.87,1.39,6.19,6.19,0,0,1-2.3.42,6.72,6.72,0,0,1-1.51-.17,3.44,3.44,0,0,1-1.24-.57,2.85,2.85,0,0,1-.85-1,3.52,3.52,0,0,1-.31-1.52,3.48,3.48,0,0,1,.35-1.65,2.93,2.93,0,0,1,.9-1,4.1,4.1,0,0,1,1.28-.61c.48-.13,1-.25,1.48-.34a15.33,15.33,0,0,1,1.52-.24,8.06,8.06,0,0,0,1.27-.23,2.22,2.22,0,0,0,.87-.43,1.08,1.08,0,0,0,.32-.84,2,2,0,0,0-.24-1,1.67,1.67,0,0,0-.62-.59,2.58,2.58,0,0,0-.85-.28,7.22,7.22,0,0,0-.92-.06,4.13,4.13,0,0,0-2.06.46,2,2,0,0,0-.9,1.78h-1.94a4.15,4.15,0,0,1,.46-1.86,3.4,3.4,0,0,1,1.1-1.22,4.65,4.65,0,0,1,1.57-.68,8.81,8.81,0,0,1,1.88-.2,12.14,12.14,0,0,1,1.59.11,4.38,4.38,0,0,1,1.43.47,2.74,2.74,0,0,1,1,1,3.15,3.15,0,0,1,.39,1.67v6.08a4.23,4.23,0,0,0,.08,1c.05.21.23.32.54.32a1.87,1.87,0,0,0,.59-.12ZM244.69,98a2.23,2.23,0,0,1-1,.4,11.44,11.44,0,0,1-1.24.21q-.66.07-1.32.18a5,5,0,0,0-1.19.33,2.18,2.18,0,0,0-.86.66,1.81,1.81,0,0,0-.33,1.15,1.57,1.57,0,0,0,.2.81,1.62,1.62,0,0,0,.5.54,2.08,2.08,0,0,0,.73.3,4.12,4.12,0,0,0,.86.09,4.76,4.76,0,0,0,1.65-.26,3.58,3.58,0,0,0,1.12-.67,2.51,2.51,0,0,0,.64-.87,2.11,2.11,0,0,0,.2-.88Z" transform="translate(-23.73 -22.93)"/></svg>